<?xml version="1.0" encoding="UTF-8"?>
<!DOCTYPE svg PUBLIC "-//W3C//DTD SVG 1.1//EN" "http://www.w3.org/Graphics/SVG/1.1/DTD/svg11.dtd">
<!-- Creator: CorelDRAW 2019 (64-Bit) -->
<svg xmlns="http://www.w3.org/2000/svg" xml:space="preserve" width="3035px" height="1080px" version="1.1" style="shape-rendering:geometricPrecision; text-rendering:geometricPrecision; image-rendering:optimizeQuality; fill-rule:evenodd; clip-rule:evenodd"
viewBox="0 0 3035 1079.84"
 xmlns:xlink="http://www.w3.org/1999/xlink"
 xmlns:xodm="http://www.corel.com/coreldraw/odm/2003">
 <defs>
  <style type="text/css">
   <![CDATA[
    .fil2 {fill:blue}
    .fil4 {fill:#E6252D}
    .fil3 {fill:#F9CD09}
    .fil1 {fill:red}
    .fil0 {fill:white}
    .fil5 {fill:red;fill-rule:nonzero}
   ]]>
  </style>
 </defs>
 <g id="Layer_x0020_1">
  <metadata id="CorelCorpID_0Corel-Layer"/>
  <polygon class="fil0" points="0,0 3035,0 3035,1079.84 0,1079.84 "/>
  <path class="fil1" d="M134.78 67.56l2765.44 0c38.87,0 70.67,32.33 70.67,71.86l0 221.73 -346.11 0c-18.17,-200.78 -929.56,-243.57 -1087.05,-244.77 -253.91,-1.94 -1128.36,57.83 -1128.36,240.88l0 3.89 -345.26 0 0 -221.73c0,-39.53 31.8,-71.86 70.67,-71.86z"/>
  <path class="fil2" d="M409.13 689.4l-345.02 0 0 -298.11 345.21 0c-0.3,93.4 -1.55,207.94 -0.19,298.11zm2561.76 -298.11l0 298.11 -345.32 0c2.74,-93.19 -3.38,-204.08 -1.17,-298.11l346.49 0z"/>
  <path class="fil3" d="M2970.89 719.54l0 220.89c0,39.51 -31.8,71.84 -70.67,71.84l-2765.44 0c-38.87,0 -70.67,-32.33 -70.67,-71.84l0 -220.89 347.34 0c42.65,180.44 758.96,251.33 1117.29,253.33 201.87,1.13 1042.21,-63.07 1093.77,-253.33l348.38 0z"/>
  <path class="fil4" d="M1533.45 169.05c196.84,1.81 1039.93,87.5 1032.17,193.84 -6.51,89.31 6.73,262.45 0,351.74 -7.8,103.48 -841.31,193.98 -1037.49,192.32 -211.49,-1.79 -1055.86,-71.77 -1059.3,-201.9 -2.37,-89.47 0,-242.79 0,-332.31 0,-132.81 849.88,-205.65 1064.62,-203.69zm-0.88 81.5l0 0c-202.76,-1.53 -1005.23,47.39 -1005.23,150.85 0,69.76 -2.18,207.49 0,277.2 3.24,104.01 800.52,145.47 1000.2,146.85 185.24,1.29 972.25,-58.77 979.62,-139.39 6.36,-69.56 -6.13,-220.13 0,-289.71 7.33,-82.85 -788.73,-144.39 -974.59,-145.8z"/>
  <path class="fil2" d="M1197.46 549.54c10.35,4.67 8.38,29.74 -4.4,55.83 -12.78,26.08 -31.64,43.55 -42,38.88 -10.36,-4.67 -8.39,-29.76 4.4,-55.85 12.78,-26.08 31.64,-43.53 42,-38.86zm701.5 2.26l0 0c10.35,4.66 8.39,29.75 -4.4,55.83 -12.78,26.08 -31.64,43.54 -42,38.87 -10.36,-4.67 -8.39,-29.74 4.4,-55.83 12.77,-26.08 31.64,-43.54 42,-38.87zm344.36 -7.34l0 0c5.66,4.29 0.54,20.66 -11.4,36.46 -11.93,15.79 -26.29,25.18 -31.95,20.91 -5.66,-4.29 -0.54,-20.66 11.39,-36.45 11.95,-15.8 26.29,-25.19 31.96,-20.92zm7.26 -33.8l0 0c-39.37,-3.01 -65.74,24.32 -79.56,51.3 -10.95,21.39 -14.21,52.14 -6.38,77.81 -11.35,9.19 -25.52,17.12 -48.04,21.61 -11.17,2.23 -17.34,-6.24 -17.24,-14 0.28,-22.35 2.69,-41.08 9.11,-62.06 2.63,-8.66 11.59,-5.7 14.63,-13.04 6.27,-15.19 7.03,-29.9 -13.04,-27.49 -12.88,1.54 -26.85,3.48 -27.34,-13.95 -0.48,-17.02 20.31,-26.1 17.21,-27.58 -11.47,-5.51 -21.17,-0.04 -33.16,-4.31 -3.36,-1.2 -0.6,-8.84 -3.99,-9.97 -4.58,-1.52 -12.65,3.32 -15.29,7.36 -5.81,8.89 -5.3,17.03 -9.62,27.52 -3.62,8.8 -3.99,18.6 -5.98,27.9 -6.25,18.33 -45.91,75.06 -75.06,89.87 -16.36,8.31 -26.66,0.98 -21.6,-16.12 6.76,-22.83 29.23,-78.4 43.84,-117.6 -14.28,0.34 -26.96,1.48 -41.23,1.8 -1.67,4.99 -4.14,8.37 -5.8,13.34 -32.01,-20.48 -51.48,-12.63 -80.54,8.27 -21.63,15.57 -40.6,39.09 -50.81,67.28 -4.05,11.19 -6.28,22.52 -6.58,33.15 -17.67,6.4 -35.25,15.87 -51.02,13.52 -3.85,-0.58 -6.48,-6.47 -5.59,-10.26 5.28,-22.8 16.44,-43.86 23.32,-66.23 4.32,-14.05 12.92,-28.45 10.26,-42.9 -3.6,-19.47 -28.44,-20.06 -41.98,-13.06 -11.49,5.96 -20.25,16.39 -31.71,22.39 -2.28,1.18 -5.56,-0.15 -7.47,-1.87 -4.93,-4.46 -7.25,-11.32 -12.12,-15.85 -4.3,-4 -9.18,-8.16 -14.93,-9.34 -7.04,-1.44 -14.82,-0.88 -21.45,1.87 -14.03,5.84 -24.06,21.78 -39.17,23.32 -6.56,0.67 -2.34,-13.58 -6.54,-18.65 -10.11,-12.22 -19.81,-7.98 -31.71,-2.81 -24.46,10.63 -48.63,21.91 -72.92,32.91 2.4,4.91 4.43,10.02 6.08,15.29 9.69,-3.31 19.7,-7.55 29.53,-9.95 4.54,-1.12 10.05,-3.43 13.99,-0.93 3.57,2.25 4.99,8.08 3.72,12.13 -13.27,42.73 -31.08,83.94 -46.62,125.91 16.16,-0.31 32.32,-0.62 48.5,-0.92 14.62,-37.63 24.8,-77.28 43.84,-112.87 3.43,-6.42 13.38,-8.88 20.51,-7.47 4.91,0.99 6.6,8.13 7.48,13.06 1.07,6.15 0.14,12.74 -1.87,18.66 -10.19,30.02 -23.02,59.07 -34.51,88.62 17.72,-0.32 36.38,1.24 54.09,0.92 17.1,-39.18 23.83,-79.34 44.78,-116.59 2.6,-4.63 16.34,-6.15 21.45,-4.67 3.4,1 7.27,4.94 6.53,8.4 -4.52,20.96 -16.11,39.87 -21.45,60.63 -2.49,9.65 -4.58,20.26 -1.87,29.84 2.28,8.09 8.35,15.84 15.86,19.6 6.39,3.2 14.85,1.81 21.45,-0.94 25.11,-10.41 48.38,-24.72 72.4,-37.47 4.21,26.98 23.59,45.47 60.54,37.27 12.9,-2.87 19.92,-11.29 31.88,-16.94 6.04,19.33 19.38,27.24 40.84,18.43 52.98,-21.76 84.04,-59.59 123.22,-116.28 6.31,1.4 18.77,-2.19 25.08,-2.09 -6.75,20.41 -48.52,93.25 -4.85,115.2 12.19,6.12 21.52,4.12 34.96,1.68 30.17,-5.5 48.78,-18.31 63.29,-30.3 7.36,14.45 19.16,25.96 36.21,31.19 34.75,10.67 74.47,-7.73 99.3,-18.67 13.23,22.82 47.32,27.03 67.27,19.77 21.03,-7.66 40.02,-21.05 56.81,-35.87 3.49,-3.09 3.12,-10.91 -0.38,-13.97 -3.27,-2.86 -8.74,2.25 -12.23,4.86 -14.52,10.82 -43.61,38.17 -60,15.2 -7.33,-10.29 -2.45,-27.67 4.82,-47.36 7.08,-19.19 13.91,-44.04 20.86,-63.3 9.9,-0.81 21.03,0.24 30.92,-0.57 4.29,-12.04 6.11,-21.62 10.39,-33.66 -6.68,-0.52 -15.83,0.16 -22.52,-0.37 6.18,-32.23 19.49,-65.07 30.77,-97.32 -15.21,0.3 -27.96,1.2 -43.16,1.5 -10.67,31.35 -19.06,62.08 -33.6,93.43 -9.94,0.29 -20.5,1.2 -30.44,1.49 -2.63,11.72 -5.26,23.43 -7.9,35.16 7.61,-0.3 18.29,-0.59 25.88,-0.88 -9.66,36.77 -20.15,69.94 -41.67,98.44 -7.65,10.13 -20.9,15.91 -33.33,18.45 -38.07,7.79 -52.75,-4.53 -58.78,-21.78 16.08,-13.48 32.04,-19.85 46.52,-35.01 23.33,-24.41 51.96,-88.74 -5.09,-93.08zm-1323.06 -143.18l0 0c-60.45,6.96 -149.99,13.59 -201.12,47.26 -30.1,19.81 -57.1,57.86 -30.08,96.58 26.4,37.82 73.54,21.8 92.63,-3.35 -21.82,-2.86 -39.24,-6.94 -40.61,-22.58 -6.24,-71.08 58.73,-56.38 121.05,-76.7 -32.35,76.54 -61.47,213 -143.93,229.85 -59.96,12.26 -87.48,-14.23 -101.47,-51.57 -33.22,63.97 14.29,93.14 56.93,99.72 39.42,6.1 89.92,-18.51 117.79,-47.69 19.71,-12.84 39.4,-27.48 57.32,-44.1 4.71,-4.37 70.43,-54.68 64.36,-13.05 -5.35,36.68 -19.9,63.42 -30.78,98.87 16.16,0.31 32.33,0.62 48.5,0.93 11.82,-35.13 20.52,-71.48 35.45,-105.4 2.6,-5.92 9.45,-10.29 15.86,-11.2 5.94,-0.84 14.6,0.95 16.78,6.53 3.85,9.86 -1.62,22.36 -4.42,32.56 -4.54,16.67 -29.69,70.96 3,75.12 32.09,4.08 68.18,-18.89 87.2,-34.35 2.66,16.16 11.17,30.21 28.19,38.31 11.7,5.55 26.23,1.98 38.85,-0.91 10.24,-2.35 18.68,-9.64 28.01,-14.46 -1.67,23.43 20.69,20.67 35.66,13.56 33.83,-16.08 52.72,-27.37 75.83,-35.06 -2.38,-4.15 -4.5,-8.49 -6.33,-12.96 -16.64,4.24 -33.01,12.28 -50.04,10.98 -5.71,-0.44 -7.23,-10.86 -5.42,-16.27 23.87,-71.64 54.21,-140.95 81.31,-211.43 -14.15,0.91 -25.01,0.91 -39.17,1.81 -11.15,30.12 -25.58,61.14 -36.72,91.25 -53.19,-9.72 -102.71,5.13 -137.34,71.38 -7.39,14.14 -12.64,30.71 -13.61,46.63 -12.03,7.9 -23.25,16.01 -37.43,19.56 -5.27,1.32 -9.32,-6.93 -8.39,-12.29 3.08,-17.8 9.26,-34.86 15.27,-51.98 4.09,-11.67 19.27,-45.64 13.65,-57.15 -9.71,-19.95 -23.93,-19.84 -38.35,-13.91 -18.53,7.62 -37.4,24.84 -47.47,21.37 -14.8,-5.1 -10.59,-27.95 -32.82,-25.37 -7.02,0.82 -14.17,3.66 -20.35,6.72 -31.71,15.63 -61.82,38.04 -92.13,57.29 29.1,-55.93 56.69,-130.47 84.34,-204.5z"/>
  <path class="fil5" d="M1393.1 483.38l0.02 0c29.99,0.01 57.24,12.25 76.97,31.98l0 0.03c19.72,19.73 31.95,46.94 31.96,76.92l0 0.05c0,30 -12.24,57.24 -31.97,76.97l-0.02 0c-19.73,19.72 -46.95,31.95 -76.92,31.96l-0.06 0c-30,0 -57.25,-12.24 -76.97,-31.97 -19.73,-19.73 -31.96,-46.96 -31.97,-76.94l0 -0.07c0,-29.99 12.24,-57.24 31.97,-76.96 19.73,-19.72 46.96,-31.96 76.95,-31.97l0.04 0zm0.02 13.29l-0.06 0c-26.32,0.01 -50.22,10.76 -67.55,28.08 -17.33,17.33 -28.08,41.23 -28.08,67.56l0 0.07c0.01,26.32 10.75,50.23 28.07,67.55 17.34,17.32 41.25,28.07 67.58,28.07l0.06 0c26.32,0 50.23,-10.74 67.55,-28.06l-0.01 -0.01c17.33,-17.32 28.09,-41.24 28.09,-67.57l0 -0.05c-0.02,-26.33 -10.75,-50.24 -28.06,-67.56l-0.02 0c-17.32,-17.32 -41.24,-28.08 -67.57,-28.08z"/>
  <path class="fil1" d="M1393.1 509.92c45.51,0 82.41,36.9 82.41,82.42 0,45.51 -36.9,82.41 -82.41,82.41 -45.52,0 -82.42,-36.9 -82.42,-82.41 0,-45.52 36.9,-82.42 82.42,-82.42zm0 16.96c36.14,0 65.45,29.31 65.45,65.46 0,36.14 -29.31,65.45 -65.45,65.45 -36.15,0 -65.45,-29.31 -65.45,-65.45 0,-36.15 29.3,-65.46 65.45,-65.46z"/>
  <path class="fil1" d="M1393.1 542.92c27.29,0 49.42,22.13 49.42,49.42 0,27.29 -22.13,49.42 -49.42,49.42 -27.3,0 -49.41,-22.13 -49.41,-49.42 0,-27.29 22.11,-49.42 49.41,-49.42z"/>
 </g>
</svg>
