<?xml version="1.0" encoding="UTF-8"?>
<!DOCTYPE svg PUBLIC "-//W3C//DTD SVG 1.1//EN" "http://www.w3.org/Graphics/SVG/1.1/DTD/svg11.dtd">
<!-- Creator: CorelDRAW X5 -->
<svg xmlns="http://www.w3.org/2000/svg" xml:space="preserve" width="210mm" height="92.328mm" style="shape-rendering:geometricPrecision; text-rendering:geometricPrecision; image-rendering:optimizeQuality; fill-rule:evenodd; clip-rule:evenodd"
viewBox="0 0 21000 9233"
 xmlns:xlink="http://www.w3.org/1999/xlink">
 <defs>
  <style type="text/css">
   <![CDATA[
    .fil1 {fill:#FEFEFE}
    .fil0 {fill:#EE4E2C}
    .fil2 {fill:#EE4E2C;fill-rule:nonzero}
   ]]>
  </style>
 </defs>
 <g id="Layer_x0020_1">
  <metadata id="CorelCorpID_0Corel-Layer"/>
  <path class="fil0" d="M1107 1510l6705 0c446,0 811,365 811,811l0 4692c0,446 -365,811 -811,811l-6900 0c-446,0 -811,-365 -811,-811l0 -5796c0,-211 174,-357 383,-383l6183 -789c211,0 383,172 383,383l0 656 -6330 0c0,275 82,426 386,426zm3760 5141l0 0c-564,108 -1289,-80 -1683,-504 -178,-191 109,-480 288,-287 265,286 738,419 1124,410 492,-11 929,-458 650,-958 -387,-692 -1339,-498 -1829,-1042 -396,-439 -208,-1129 257,-1434 485,-319 1322,-307 1721,151 172,196 -116,485 -288,287 -322,-369 -1083,-319 -1374,61 -413,543 205,835 637,966 594,180 1253,509 1361,1190 86,548 -338,1059 -864,1160z"/>
  <path class="fil1" d="M4867 6651l0 0c-564,108 -1289,-80 -1683,-504 -178,-191 109,-480 288,-287 265,286 738,419 1124,410 492,-11 929,-458 650,-958 -386,-692 -1339,-498 -1829,-1041 -396,-439 -208,-1129 257,-1435 485,-319 1322,-307 1721,151 172,196 -116,485 -288,287 -322,-369 -1083,-319 -1373,61 -413,543 205,835 637,966 594,180 1253,509 1361,1190 86,548 -338,1059 -864,1160z"/>
  <path class="fil2" d="M16415 1222c-240,0 -455,102 -603,263l0 -187c0,-169 -272,-170 -272,0l0 2214c0,170 272,170 272,0l0 -986c148,161 363,262 603,262 445,0 807,-351 807,-783 0,-432 -362,-783 -807,-783zm0 1283l0 0c-285,0 -516,-225 -516,-500 0,-248 187,-455 433,-494 1,0 3,-1 4,-1 26,-4 52,-6 78,-6 210,0 392,123 472,299 0,1 1,2 1,2 28,61 43,129 43,199 0,276 -231,500 -515,500zm-2004 283c-445,0 -807,-351 -807,-783 0,-432 362,-783 807,-783 445,0 807,351 807,783 0,432 -362,783 -807,783zm0 -1283l0 0c-284,0 -516,224 -516,500 0,276 231,500 516,500 284,0 516,-224 516,-500 0,-276 -231,-500 -516,-500zm6488 485c-7,-360 -197,-685 -590,-757 -339,-62 -735,111 -880,419 -150,320 -87,759 209,982 320,241 819,167 1148,-12 153,-83 16,-310 -137,-228 -208,113 -480,169 -713,93 -174,-56 -272,-202 -302,-366l1130 0c72,0 137,-61 136,-132zm-1256 -132l0 0c2,-10 5,-20 8,-29 65,-215 287,-339 512,-345 259,-7 404,166 449,374l-969 0zm-553 134c-7,-360 -197,-685 -590,-757 -339,-62 -735,111 -880,419 -150,320 -87,759 209,982 320,241 819,167 1148,-12 153,-83 16,-310 -137,-228 -208,113 -480,169 -713,93 -174,-56 -272,-202 -302,-366l1130 0c72,0 137,-61 136,-132zm-1256 -132l0 0c2,-10 5,-20 8,-29 65,-215 287,-339 512,-345 259,-7 404,166 449,374l-969 0zm-4550 -122l0 915c0,173 -272,173 -272,0l0 -897c-9,-177 -161,-259 -166,-261 -193,-84 -545,-45 -754,220l0 938c0,173 -272,173 -272,0l0 -2350c0,-172 272,-172 272,0l0 1056c333,-222 757,-197 956,-61 0,0 239,131 235,441zm-1908 -1327c-266,-294 -825,-301 -1149,-96 -310,196 -436,640 -172,921 327,349 963,225 1222,668 187,321 -106,608 -434,615 -257,5 -573,-80 -751,-264 -119,-123 -311,62 -192,185 263,272 748,393 1124,323 351,-65 635,-393 577,-745 -72,-437 -512,-648 -909,-764 -289,-84 -702,-272 -425,-620 194,-244 702,-277 917,-39 115,127 307,-58 192,-185z"/>
  <path class="fil0" d="M18460 9188l-863 0 923 -1745 -1516 -2864 936 0 1048 1979 1048 -1979 863 0 -2439 4609zm-8597 -1365l723 0 0 -1322 975 0c1011,0 1831,-709 1831,-1584 0,-875 -820,-1584 -1831,-1584l-1698 0c0,1497 0,2993 0,4490zm723 -2045l0 -1722 975 0c549,0 995,385 995,861 0,475 -445,861 -995,861l-975 0zm5514 -1170l635 0 0 3187 -635 0 0 -358c-283,241 -650,386 -1050,386 -896,0 -1622,-726 -1622,-1622 0,-896 726,-1622 1622,-1622 401,0 767,145 1050,386l0 -358zm-1050 655c518,0 938,420 938,938 0,518 -420,938 -938,938 -518,0 -938,-420 -938,-938 0,-518 420,-938 938,-938z"/>
 </g>
</svg>
